<svg width="23" height="27" viewBox="0 0 23 27" xmlns="http://www.w3.org/2000/svg">
<mask id="path-1-inside-1_35_1346" fill="white">
<path fill-rule="evenodd" clip-rule="evenodd" d="M2.14453 2H16.7075V5.22583H6.17971C5.07514 5.22583 4.17971 6.12126 4.17971 7.22583V19.7742H2.14453V2L2.14453 2ZM4.17971 21.7742H2.14453C1.03996 21.7742 0.144531 20.8788 0.144531 19.7742V2C0.144531 0.895433 1.03996 0 2.14453 0H16.7075C17.8121 0 18.7075 0.895431 18.7075 2V5.22583H20.7427C21.8473 5.22583 22.7427 6.12126 22.7427 7.22583V25C22.7427 26.1046 21.8473 27 20.7427 27H6.17971C5.07514 27 4.17971 26.1046 4.17971 25V21.7742Z"/>
</mask>
<path id="copyBtn" d="M16.7075 2H18.7075V0H16.7075V2ZM2.14453 2V0H0.030336L0.14761 2.11094L2.14453 2ZM16.7075 5.22583V7.22583H18.7075V5.22583H16.7075ZM4.17971 19.7742V21.7742H6.17971V19.7742H4.17971ZM2.14453 19.7742H0.144531V21.7742H2.14453V19.7742ZM2.14453 2H4.14453V1.94449L4.14145 1.88906L2.14453 2ZM4.17971 21.7742H6.17971V19.7742H4.17971V21.7742ZM18.7075 5.22583H16.7075V7.22583H18.7075V5.22583ZM16.7075 0H2.14453V4H16.7075V0ZM18.7075 5.22583V2H14.7075V5.22583H18.7075ZM6.17971 7.22583H16.7075V3.22583H6.17971V7.22583ZM6.17971 7.22583V7.22583V3.22583C3.97057 3.22583 2.17971 5.0167 2.17971 7.22583H6.17971ZM6.17971 19.7742V7.22583H2.17971V19.7742H6.17971ZM2.14453 21.7742H4.17971V17.7742H2.14453V21.7742ZM0.144531 2V19.7742H4.14453V2H0.144531ZM0.14761 2.11094L0.147611 2.11094L4.14145 1.88906L4.14145 1.88906L0.14761 2.11094ZM2.14453 23.7742H4.17971V19.7742H2.14453V23.7742ZM-1.85547 19.7742C-1.85547 21.9833 -0.0646056 23.7742 2.14453 23.7742V19.7742H2.14453H-1.85547ZM-1.85547 2V19.7742H2.14453V2H-1.85547ZM2.14453 -2C-0.0646107 -2 -1.85547 -0.209134 -1.85547 2H2.14453L2.14453 2V-2ZM16.7075 -2H2.14453V2H16.7075V-2ZM20.7075 2C20.7075 -0.20914 18.9167 -2 16.7075 -2V2H20.7075ZM20.7075 5.22583V2H16.7075V5.22583H20.7075ZM18.7075 7.22583H20.7427V3.22583H18.7075V7.22583ZM20.7427 7.22583H24.7427C24.7427 5.01669 22.9518 3.22583 20.7427 3.22583V7.22583ZM20.7427 7.22583V25H24.7427V7.22583H20.7427ZM20.7427 25V25V29C22.9518 29 24.7427 27.2092 24.7427 25H20.7427ZM20.7427 25H6.17971V29H20.7427V25ZM6.17971 25H6.17971H2.17971C2.17971 27.2092 3.97057 29 6.17971 29V25ZM6.17971 25V21.7742H2.17971V25H6.17971Z" mask="url(#path-1-inside-1_35_1346)"/>
</svg>
